<svg width="128" height="128" viewBox="0 0 128 128" xmlns="http://www.w3.org/2000/svg">
  <defs>
    <!-- Baseball radial gradient -->
    <radialGradient id="ballGradient" cx="0.4" cy="0.4" r="0.6">
      <stop offset="0%" stop-color="#ffffff"/>
      <stop offset="80%" stop-color="#f0f0f0"/>
      <stop offset="100%" stop-color="#dcdcdc"/>
    </radialGradient>
    <!-- Pen linear gradient -->
    <linearGradient id="penGradient" x1="0" y1="0" x2="1" y2="1">
      <stop offset="0%" stop-color="#4a90e2"/>
      <stop offset="50%" stop-color="#357ABD"/>
      <stop offset="100%" stop-color="#29689D"/>
    </linearGradient>
    <!-- Pen tip gradient -->
    <linearGradient id="penTipGradient" x1="0" y1="0" x2="1" y2="1">
      <stop offset="0%" stop-color="#d0d0d0"/>
      <stop offset="100%" stop-color="#a0a0a0"/>
    </linearGradient>
    <!-- Shadow filter -->
    <filter id="dropShadow" x="-20%" y="-20%" width="140%" height="140%">
      <feGaussianBlur in="SourceAlpha" stdDeviation="3"/>
      <feOffset dx="3" dy="3" result="offsetblur"/>
      <feComponentTransfer>
        <feFuncA type="linear" slope="0.5"/>
      </feComponentTransfer>
      <feMerge>
        <feMergeNode/>
        <feMergeNode in="SourceGraphic"/>
      </feMerge>
    </filter>
  </defs>

  <!-- Baseball -->
  <g filter="url(#dropShadow)">
    <circle cx="64" cy="64" r="50" fill="url(#ballGradient)"/>

    <!-- Stitches -->
    <g stroke="#c00" stroke-width="2.5" fill="none">
      <!-- Left stitch curve -->
      <path d="M 32,26 C 60,48 60,80 32,102" transform="rotate(-15, 64, 64)"/>
      <!-- Right stitch curve -->
      <path d="M 96,26 C 68,48 68,80 96,102" transform="rotate(-15, 64, 64)"/>

      <!-- Stitch marks -->
      <g stroke-width="1.5" transform="rotate(-15, 64, 64)">
        <path d="M 33,30 l 5,2" />
        <path d="M 35,38 l 5,2" />
        <path d="M 38,46 l 5,2" />
        <path d="M 42,54 l 5,2" />
        <path d="M 47,62 l 5,2" />
        <path d="M 52,70 l 5,2" />
        <path d="M 47,78 l 5,-2" />
        <path d="M 42,86 l 5,-2" />
        <path d="M 38,94 l 5,-2" />

        <path d="M 95,30 l -5,2" />
        <path d="M 93,38 l -5,2" />
        <path d="M 90,46 l -5,2" />
        <path d="M 86,54 l -5,2" />
        <path d="M 81,62 l -5,2" />
        <path d="M 76,70 l -5,2" />
        <path d="M 81,78 l -5,-2" />
        <path d="M 86,86 l -5,-2" />
        <path d="M 90,94 l -5,-2" />
      </g>
    </g>
  </g>

  <!-- Pen -->
  <g transform="translate(55, 55) rotate(45, 0, 0)" filter="url(#dropShadow)">
    <!-- Pen Body -->
    <rect x="-45" y="-6" width="90" height="12" rx="6" ry="6" fill="url(#penGradient)" stroke="#255889" stroke-width="0.5"/>
    <!-- Pen Tip Cone -->
    <path d="M 45,-6 L 55,0 L 45,6 Z" fill="url(#penTipGradient)"/>
    <!-- Pen Nib -->
    <path d="M 55,0 L 58,0" stroke="#333" stroke-width="2" stroke-linecap="round"/>
    <!-- Pen End Cap -->
    <circle cx="-45" cy="0" r="6" fill="#357ABD"/>
  </g>
</svg>
